<svg xmlns="http://www.w3.org/2000/svg" width="50" height="34" viewBox="0 0 50 34" fill="none">
<path d="M1.52824 13.8658L21.2038 0.528768C21.6905 0.193216 22.2479 0.0119214 22.8176 0.0038243C23.3874 -0.00427283 23.9485 0.161125 24.4426 0.482737C24.9786 0.836391 25.4225 1.34447 25.7292 1.95537C26.0358 2.56627 26.1943 3.25823 26.1886 3.96099V13.291L45.0151 0.525227C45.5018 0.189676 46.0592 0.00838078 46.6289 0.000283644C47.1986 -0.00781349 47.7598 0.157584 48.2539 0.479197C48.7899 0.83285 49.2338 1.34093 49.5404 1.95183C49.8471 2.56273 50.0056 3.25469 49.9998 3.95745V30.0414C50.0059 30.7443 49.8475 31.4366 49.5409 32.0478C49.2342 32.6589 48.7901 33.1671 48.2539 33.5208C47.7598 33.8424 47.1986 34.0078 46.6289 33.9997C46.0592 33.9916 45.5018 33.8103 45.0151 33.4748L26.1886 20.7031V30.0367C26.1953 30.7404 26.0373 31.4337 25.7306 32.0457C25.4239 32.6578 24.9795 33.1667 24.4426 33.5208C23.9485 33.8424 23.3874 34.0078 22.8176 33.9997C22.2479 33.9916 21.6905 33.8103 21.2038 33.4748L1.52824 20.1377C1.0605 19.8058 0.67487 19.3446 0.407554 18.7975C0.140239 18.2504 0 17.6354 0 17.01C0 16.3847 0.140239 15.7696 0.407554 15.2225C0.67487 14.6755 1.0605 14.2143 1.52824 13.8823V13.8658Z" fill="white"/>
</svg>