<svg xmlns="http://www.w3.org/2000/svg" width="76" height="76" viewBox="0 0 76 76" fill="none">
  <rect width="76" height="76" fill="black"/>
  <path d="M31.875 64.125H24.75C24.1201 64.125 23.516 63.8748 23.0706 63.4294C22.6252 62.984 22.375 62.3799 22.375 61.75V14.25C22.375 13.6201 22.6252 13.016 23.0706 12.5706C23.516 12.1252 24.1201 11.875 24.75 11.875H31.875C32.5049 11.875 33.109 12.1252 33.5544 12.5706C33.9998 13.016 34.25 13.6201 34.25 14.25V61.75C34.25 62.3799 33.9998 62.984 33.5544 63.4294C33.109 63.8748 32.5049 64.125 31.875 64.125Z" fill="white"/>
  <path d="M52.25 64.125H45.125C44.4951 64.125 43.891 63.8748 43.4456 63.4294C43.0002 62.984 42.75 62.3799 42.75 61.75V14.25C42.75 13.6201 43.0002 13.016 43.4456 12.5706C43.891 12.1252 44.4951 11.875 45.125 11.875H52.25C52.8799 11.875 53.484 12.1252 53.9294 12.5706C54.3748 13.016 54.625 13.6201 54.625 14.25V61.75C54.625 62.3799 54.3748 62.984 53.9294 63.4294C53.484 63.8748 52.8799 64.125 52.25 64.125Z" fill="white"/>
</svg>