<svg xmlns="http://www.w3.org/2000/svg" width="40" height="30" viewBox="0 0 40 30" fill="none">
  <path d="M31.25 17.8125L35 20.625L31.25 23.4375" stroke="white" stroke-width="3" stroke-linecap="round" stroke-linejoin="round"/>
  <path d="M31.25 6.5625L35 9.375L31.25 12.1875" stroke="white" stroke-width="3" stroke-linecap="round" stroke-linejoin="round"/>
  <path d="M5 20.625H11.6555C12.6843 20.625 13.6972 20.4345 14.6044 20.0704C15.5115 19.7063 16.2847 19.1799 16.8555 18.5379L20 15" stroke="white" stroke-width="3" stroke-linecap="round" stroke-linejoin="round"/>
  <path d="M5 9.375H11.6555C12.6843 9.37501 13.6972 9.56552 14.6044 9.9296C15.5115 10.2937 16.2847 10.8201 16.8555 11.4621L23.1445 18.5379C23.7153 19.1799 24.4885 19.7063 25.3956 20.0704C26.3028 20.4345 27.3157 20.625 28.3445 20.625H32.5" stroke="white" stroke-width="3" stroke-linecap="round" stroke-linejoin="round"/>
  <path d="M32.5 9.375H28.3445C27.3157 9.37501 26.3028 9.56552 25.3956 9.9296C24.4885 10.2937 23.7153 10.8201 23.1445 11.4621L22.5 12.1875" stroke="white" stroke-width="3" stroke-linecap="round" stroke-linejoin="round"/>
</svg>