<svg xmlns="http://www.w3.org/2000/svg" width="24" height="24" viewBox="0 0 24 24" fill="none">
  <g clip-path="url(#clip0_6631_2797)">
    <path d="M18.2795 8.36874C18.1124 8.16187 17.87 8.02985 17.6056 8.00172C17.3411 7.97359 17.0764 8.05166 16.8695 8.21874C16.6626 8.38583 16.5306 8.62825 16.5025 8.89268C16.4744 9.1571 16.5524 9.42187 16.7195 9.62874C17.2247 10.3157 17.4972 11.146 17.4972 11.9987C17.4972 12.8514 17.2247 13.6818 16.7195 14.3687C16.6003 14.5157 16.5252 14.6935 16.503 14.8814C16.4808 15.0693 16.5124 15.2597 16.5941 15.4304C16.6757 15.6011 16.8042 15.7451 16.9645 15.8457C17.1247 15.9463 17.3103 15.9994 17.4995 15.9987C17.6489 15.9993 17.7965 15.9663 17.9315 15.9023C18.0665 15.8382 18.1854 15.7448 18.2795 15.6287C19.0727 14.5848 19.5022 13.3098 19.5022 11.9987C19.5022 10.6877 19.0727 9.41266 18.2795 8.36874Z" fill="white"/>
    <path d="M19.6398 5.23125C19.5387 5.1472 19.422 5.0839 19.2964 5.04494C19.1708 5.00599 19.0388 4.99216 18.9079 5.00423C18.777 5.0163 18.6497 5.05404 18.5333 5.1153C18.417 5.17656 18.3139 5.26013 18.2298 5.36125C18.1458 5.46237 18.0825 5.57905 18.0435 5.70463C18.0046 5.83022 17.9907 5.96224 18.0028 6.09317C18.0149 6.2241 18.0526 6.35137 18.1139 6.46772C18.1751 6.58406 18.2587 6.6872 18.3598 6.77125C19.1618 7.39112 19.8151 8.18246 20.2719 9.08736C20.7287 9.99227 20.9774 10.9878 20.9998 12.0012C20.9774 13.0147 20.7287 14.0102 20.2719 14.9151C19.8151 15.82 19.1618 16.6114 18.3598 17.2312C18.2585 17.3152 18.1748 17.4183 18.1135 17.5346C18.0521 17.651 18.0143 17.7783 18.0023 17.9093C17.9902 18.0403 18.0041 18.1723 18.0431 18.2979C18.0822 18.4235 18.1456 18.5402 18.2298 18.6412C18.3238 18.7541 18.4416 18.8449 18.5747 18.9071C18.7077 18.9694 18.8529 19.0015 18.9998 19.0012C19.2335 19.0017 19.4599 18.9203 19.6398 18.7712C20.6702 17.9657 21.507 16.9393 22.0885 15.7677C22.6699 14.5961 22.9814 13.3091 22.9998 12.0012C22.9814 10.6934 22.6699 9.40636 22.0885 8.23476C21.507 7.06316 20.6702 6.03682 19.6398 5.23125Z" fill="white"/>
    <path d="M14.47 3.11835C14.318 3.03058 14.1455 2.98438 13.97 2.98438C13.7945 2.98438 13.622 3.03058 13.47 3.11835L7 7.56835H2C1.73478 7.56835 1.48043 7.67371 1.29289 7.86124C1.10536 8.04878 1 8.30313 1 8.56835V15.4284C1 15.6936 1.10536 15.9479 1.29289 16.1355C1.48043 16.323 1.73478 16.4284 2 16.4284H7L13.41 20.8284C13.5856 20.942 13.7909 21.0011 14 20.9984C14.2652 20.9984 14.5196 20.893 14.7071 20.7055C14.8946 20.5179 15 20.2636 15 19.9984V3.99835C14.9995 3.81745 14.95 3.64006 14.8566 3.48509C14.7633 3.33012 14.6297 3.20337 14.47 3.11835Z" fill="white"/>
  </g>
  <defs>
    <clipPath id="clip0_6631_2797">
      <rect width="24" height="24" fill="white"/>
    </clipPath>
  </defs>
</svg>